<svg width="134" height="43" viewBox="0 0 134 43" fill="none" xmlns="http://www.w3.org/2000/svg">
<path d="M133.019 21.5469C132.456 22.0215 131.788 22.5312 131.032 23.0586C130.575 23.375 129.802 23.8848 128.694 24.6055L126.023 26.3633C125.9 26.4512 125.249 26.8379 124.054 27.5586C123.228 28.0684 122.472 28.4551 121.751 28.7539C121.575 28.877 121.312 28.9297 120.96 28.9297C120.556 28.9297 120.239 28.9121 120.011 28.8594C119.853 28.8594 119.677 28.8066 119.483 28.6836L118.974 28.3145L118.605 27.8398C118.358 27.4355 118.358 26.7852 118.323 26.3281C118.323 25.7129 118.816 25.2383 119.009 25.0449C119.22 24.8516 119.431 24.6934 119.624 24.5879C119.835 24.4824 120.187 24.4297 120.696 24.4297L121.558 24.3242C122.138 24.1836 122.946 23.9551 123.579 23.6738C123.632 23.6562 123.948 23.4629 124.546 23.0938C124.933 22.8828 125.302 22.6543 125.636 22.4082L126.638 21.7578C127.165 21.4238 127.534 21.1777 127.763 21.002C127.991 20.8086 128.255 20.6152 128.554 20.4043L129.046 20C129.187 19.9121 129.661 19.4551 130.523 18.8926L130.962 18.5938C131.226 18.5762 131.454 18.5586 131.648 18.5586C131.806 18.5586 131.982 18.5762 132.14 18.5938L132.79 18.8926C133.247 19.2969 133.476 19.7539 133.476 20.2812C133.476 20.7207 133.353 21.2129 133.019 21.5469Z" fill="#DB7239"/>
<path d="M129.204 34.0625C129.679 34.4668 129.978 34.9414 130.066 35.4688C130.083 35.5391 130.101 35.6445 130.101 35.8027C130.101 35.9609 130.083 36.1543 130.066 36.3652C130.013 36.6289 129.819 36.9453 129.38 37.3496C128.659 37.9473 127.886 38.5273 127.06 39.1074C126.233 39.6875 124.81 40.584 122.788 41.8145L121.505 42.5L120.714 42.8516C120.45 42.9395 120.222 42.9922 119.87 42.9922C119.079 42.9922 118.692 42.6055 118.288 41.9902C118.2 41.7969 118.13 41.4102 118.042 41.1289C118.042 40.918 118.06 40.2852 118.112 40.0039C118.183 39.8633 118.235 39.7754 118.288 39.7227C118.446 39.5469 118.587 39.4062 118.728 39.3184C119.378 39.125 120.028 38.9492 120.714 38.7559C121.294 38.4922 121.944 38.123 122.683 37.666C123.157 37.3672 123.526 37.1387 123.773 36.9453L125.021 35.9785L126.321 34.8887C126.655 34.5898 126.919 34.3789 127.112 34.2559C127.446 34.0273 127.728 33.9219 127.939 33.9219C128.536 33.9219 128.958 33.9746 129.204 34.0625Z" fill="#DB7239"/>
<path d="M104.841 22.9883L105.491 22.5137C105.263 22.1621 105.157 21.7402 105.157 21.2656C105.351 20.5625 105.526 20.0703 105.667 19.8066C105.808 19.5254 106.054 19.2969 106.388 19.1035C106.37 19.0156 106.511 18.8926 106.827 18.7344C107.161 18.5762 107.372 18.4883 107.495 18.4883C107.864 18.418 108.216 18.3828 108.55 18.3828C109.06 18.3828 109.517 18.5059 109.956 18.7695C110.009 18.8223 110.132 18.8574 110.343 18.8926L111.239 19.7539C111.714 19.5254 112.206 19.3145 112.716 19.1035L114.017 18.5586C114.403 18.3652 114.843 18.2773 115.353 18.2773C115.722 18.2773 116.179 18.3652 116.618 18.418C116.952 18.5762 117.163 18.752 117.251 18.9102C117.357 19.0684 117.497 19.3496 117.655 19.7891C117.796 19.9824 117.866 20.1582 117.866 20.3164C117.866 20.7559 117.849 21.125 117.796 21.459C117.743 21.793 117.62 22.3555 117.409 23.1641C117.146 23.7617 116.952 24.1484 116.864 24.3242C116.671 24.6758 116.442 25.0273 116.179 25.3965L115.704 26.0117C115.3 26.4688 114.86 26.9082 114.351 27.3477C113.946 27.6816 113.437 28.0508 112.839 28.4551C112.575 28.5254 112.417 28.5957 112.364 28.6484C111.855 28.7891 111.485 28.8594 111.239 28.8594C111.151 28.8594 110.905 28.8418 110.519 28.7891C110.325 28.7012 110.15 28.5781 109.956 28.4551L109.341 27.9277C109.2 27.5586 109.13 27.2598 109.13 27.0137C109.13 26.7852 109.218 26.2402 109.411 26.0117L110.026 25.502C110.501 25.3086 110.888 25.1328 111.187 24.9746C111.485 24.7988 111.837 24.5527 112.224 24.2188C112.276 24.1133 112.47 23.8848 112.804 23.5332C112.892 23.4102 113.067 23.2168 113.296 22.9883L110.132 23.2695L108.796 24.5703C108.146 25.0273 107.39 25.5371 106.493 26.082L104.296 27.4531L102.327 28.5605C101.413 29.0703 100.64 29.457 99.9893 29.7559L99.339 30.0371H98.794C98.6007 30.0371 98.4249 30.002 98.2315 29.9316L97.8976 29.7559C97.5636 29.5977 97.2296 29.3164 96.9308 28.8945C96.8077 28.7715 96.8604 28.5957 96.6671 27.6289C96.6671 27.5059 96.7374 27.2422 96.8604 26.8379C96.9483 26.5039 97.1944 26.3457 97.2472 26.293L97.9327 25.7305C98.4073 25.502 98.7765 25.3965 99.0226 25.3965C99.2159 25.3965 99.4093 25.4316 99.7081 25.5723C100.323 25.5723 101.009 25.3086 101.782 24.7812L103.839 23.5684C103.927 23.5508 104.103 23.4453 104.349 23.2871C104.612 23.1113 104.771 23.0059 104.841 22.9883Z" fill="#DB7239"/>
<path d="M113.648 2.28125C114.157 2.73828 114.439 3.14258 114.509 3.47656C114.579 3.81055 114.614 4.00391 114.614 4.05664C114.614 4.19727 114.544 4.83008 114.245 5.19922C114.192 5.375 114.069 5.51562 113.858 5.60352C113.173 6.07812 112.347 6.64062 111.38 7.25586L108.743 8.9082L108.128 9.24219L107.53 9.59375L106.88 9.96289C106.704 10.0859 106.423 10.1914 106.054 10.3145L105.245 10.3848C104.191 10.3848 103.857 9.57617 103.628 9.41797C103.47 9.25977 103.382 8.96094 103.382 8.52148C103.382 8.25781 103.4 7.73047 103.452 7.43164C103.593 7.15039 103.769 6.97461 103.997 6.71094C104.366 6.48242 104.595 6.44727 104.823 6.39453C105.333 6.39453 105.614 6.39453 105.702 6.37695C105.79 6.35938 105.948 6.30664 106.212 6.21875C106.757 6.00781 107.583 5.60352 108.198 5.16406L109.464 4.23242L110.044 3.75781L110.835 3.10742L111.573 2.59766C111.942 2.33398 112.206 2.19336 112.329 2.17578C112.452 2.1582 112.593 2.14062 112.733 2.14062C112.997 2.14062 113.314 2.19336 113.648 2.28125ZM116.372 6.35938C117.339 7.2207 117.409 8.22266 117.321 8.66211C117.269 8.87305 117.146 9.08398 116.987 9.27734C116.847 9.4707 116.741 9.57617 116.601 9.66406C115.845 10.1914 115.001 10.7539 114.034 11.3516L111.31 13.0918L110.87 13.3027L110.255 13.6719L109.569 14.0234L108.778 14.3926C108.55 14.4805 108.427 14.498 107.987 14.498C107.566 14.498 107.372 14.498 107.091 14.2344C106.81 13.9531 106.458 13.6191 106.37 13.4785C106.212 13.3203 106.124 13.0215 106.124 12.582C106.124 11.8965 106.37 11.2461 106.792 10.9473C107.232 10.6484 107.407 10.6133 107.671 10.5605L108.778 10.3145C109.323 10.1738 110.114 9.7168 110.835 9.24219L112.821 7.94141L113.648 7.29102C114.122 6.92188 114.773 6.3418 115.107 6.25391C115.282 6.20117 115.423 6.18359 115.511 6.18359C115.739 6.18359 116.021 6.23633 116.372 6.35938Z" fill="#DB7239"/>
<path d="M93.6085 23.9902C93.6612 24.1133 93.7843 24.1836 93.9425 24.1836C94.0655 24.1836 94.2061 24.1133 94.3643 23.9902L94.8741 23.7441L95.5597 23.2695C95.7882 23.0762 96.1222 22.8301 96.0694 22.6367C95.9112 22.2676 95.6827 22.0918 95.3487 22.0918C95.2257 22.0918 95.1026 22.127 94.9444 22.1973C94.6104 22.2676 94.3468 22.3555 94.1183 22.4785C93.837 22.707 93.6261 22.9355 93.4679 23.1992C93.4151 23.2871 93.4679 23.5508 93.6085 23.9902ZM89.8292 25.2559C89.6358 24.834 89.4776 24.1836 89.4776 24.0254C89.4776 23.1113 89.5128 22.5312 89.8116 21.8984C90.1456 21.248 90.3917 20.9141 91.0245 20.4043C91.8858 19.6836 92.6768 19.2969 93.7315 18.9277C93.7843 18.875 94.0128 18.8047 94.4347 18.7168L95.2784 18.5586L96.7901 18.5234C97.212 18.5234 97.5284 18.5234 97.8624 18.6641C98.3546 18.752 99.128 19.1211 99.4093 19.3496C99.6378 19.4375 99.9542 19.7363 100.394 20.2461C100.534 20.4043 100.728 20.6328 100.991 20.9668C101.132 21.3184 101.29 21.6699 101.29 21.8633C101.29 22.4434 101.273 22.8301 100.921 23.3398C100.657 23.7266 100.482 23.9727 100.394 24.0605C100.218 24.2891 99.9893 24.5176 99.7081 24.7461C99.4093 25.0449 99.0226 25.3613 98.5479 25.6953C98.2315 25.9062 97.9327 26.1172 97.6515 26.3281C97.1944 26.6973 96.8077 26.9785 96.5089 27.1719L95.2784 27.9277C94.4171 28.4023 94.0304 28.666 93.6612 28.8945C92.589 29.5449 91.8507 29.8965 91.3058 30.1777C90.4268 30.6523 89.7765 31.0215 89.337 31.2676C88.4405 31.707 87.5968 32.1113 86.7706 32.4453L86.2081 32.5859L85.1534 32.5156C84.8722 32.3926 84.6964 32.3047 84.6085 32.2344L84.1866 31.9355C84.0636 31.7773 83.9933 31.6543 83.9405 31.584C83.5714 31.0039 83.5011 30.793 83.5011 30.2129C83.5011 29.9844 83.6065 29.6855 83.7999 29.3164C83.7999 28.8945 85.0655 28.1035 85.839 28.1035H86.5948C87.1397 28.1035 87.9132 27.6113 88.6866 27.2422C89.4073 26.9258 90.0577 26.5742 90.6729 26.1875L90.3038 25.8359C90.0401 25.5371 89.8819 25.3438 89.8292 25.2559Z" fill="#DB7239"/>
<path d="M100.358 5.5332C100.446 5.79688 100.499 6.00781 100.499 6.18359C100.499 6.32422 100.446 6.48242 100.358 6.67578C100.271 6.93945 100.025 7.18555 99.6026 7.39648C99.4796 7.4668 99.2862 7.53711 99.0577 7.60742L98.0733 7.90625L97.1768 8.1875C96.878 8.27539 96.5968 8.41602 96.3507 8.5918C95.9112 8.87305 95.4893 9.1543 95.0851 9.43555C94.6808 9.69922 94.4698 9.91016 94.4522 10.0332C94.3116 10.5957 94.7159 10.8066 95.0851 10.8594C95.4893 10.9121 95.7706 10.8945 96.1046 10.8945C96.878 10.9473 97.8624 10.6836 98.5479 10.6484C99.5147 10.6484 99.919 10.8594 100.2 11.5449C100.271 11.8789 100.306 12.1074 100.306 12.2656C100.306 12.459 100.271 12.6875 100.2 12.9863C99.9893 13.6543 99.5323 14.1113 98.8468 14.3398C98.3722 14.5156 97.5987 14.6035 96.5616 14.6035C96.4386 14.6211 96.2628 14.6387 95.9991 14.6387C95.2081 14.6387 94.3995 14.5332 93.6085 14.3223C92.8175 14.0938 92.255 13.8652 91.8858 13.6367C91.5343 13.4434 91.2003 13.1621 90.9015 12.793C90.2862 12.0371 90.1983 11.2285 90.1983 10.5957C90.1983 9.98047 90.4268 9.3125 90.919 8.5918C91.0772 8.32812 91.3409 8.01172 91.6749 7.66016C91.8683 7.43164 92.0968 7.20312 92.3956 6.97461C92.5538 6.81641 92.8351 6.62305 93.2218 6.35938L94.6632 5.39258C95.1729 5.07617 95.8585 4.74219 96.7198 4.37305C96.7726 4.35547 96.9659 4.30273 97.2999 4.23242C97.6515 4.16211 97.9151 4.12695 98.0909 4.12695C98.8292 4.12695 99.4093 4.30273 99.8487 4.67188C100.13 4.86523 100.148 4.95312 100.358 5.5332Z" fill="#DB7239"/>
<path d="M83.8702 21.5469C83.3077 22.0215 82.6397 22.5312 81.8839 23.0586C81.4268 23.375 80.6534 23.8848 79.546 24.6055L76.8741 26.3633C76.7511 26.4512 76.1007 26.8379 74.9054 27.5586C74.0792 28.0684 73.3233 28.4551 72.6026 28.7539C72.4268 28.877 72.1632 28.9297 71.8116 28.9297C71.4073 28.9297 71.0909 28.9121 70.8624 28.8594C70.7042 28.8594 70.5284 28.8066 70.3351 28.6836L69.8253 28.3145L69.4561 27.8398C69.2101 27.4355 69.2101 26.7852 69.1749 26.3281C69.1749 25.7129 69.6671 25.2383 69.8604 25.0449C70.0714 24.8516 70.2823 24.6934 70.4757 24.5879C70.6866 24.4824 71.0382 24.4297 71.5479 24.4297L72.4093 24.3242C72.9893 24.1836 73.7979 23.9551 74.4308 23.6738C74.4835 23.6562 74.7999 23.4629 75.3976 23.0938C75.7843 22.8828 76.1534 22.6543 76.4874 22.4082L77.4893 21.7578C78.0167 21.4238 78.3858 21.1777 78.6143 21.002C78.8429 20.8086 79.1065 20.6152 79.4054 20.4043L79.8976 20C80.0382 19.9121 80.5128 19.4551 81.3741 18.8926L81.8136 18.5938C82.0772 18.5762 82.3058 18.5586 82.4991 18.5586C82.6573 18.5586 82.8331 18.5762 82.9913 18.5938L83.6417 18.8926C84.0987 19.2969 84.3272 19.7539 84.3272 20.2812C84.3272 20.7207 84.2042 21.2129 83.8702 21.5469Z" fill="#DB7239"/>
<path d="M80.0558 34.0625C80.5304 34.4668 80.8292 34.9414 80.9171 35.4688C80.9347 35.5391 80.9522 35.6445 80.9522 35.8027C80.9522 35.9609 80.9347 36.1543 80.9171 36.3652C80.8643 36.6289 80.671 36.9453 80.2315 37.3496C79.5108 37.9473 78.7374 38.5273 77.9112 39.1074C77.0851 39.6875 75.6612 40.584 73.6397 41.8145L72.3565 42.5L71.5655 42.8516C71.3018 42.9395 71.0733 42.9922 70.7218 42.9922C69.9308 42.9922 69.544 42.6055 69.1397 41.9902C69.0518 41.7969 68.9815 41.4102 68.8936 41.1289C68.8936 40.918 68.9112 40.2852 68.964 40.0039C69.0343 39.8633 69.087 39.7754 69.1397 39.7227C69.2979 39.5469 69.4386 39.4062 69.5792 39.3184C70.2296 39.125 70.88 38.9492 71.5655 38.7559C72.1456 38.4922 72.796 38.123 73.5343 37.666C74.0089 37.3672 74.378 37.1387 74.6241 36.9453L75.8722 35.9785L77.1729 34.8887C77.5069 34.5898 77.7706 34.3789 77.964 34.2559C78.2979 34.0273 78.5792 33.9219 78.7901 33.9219C79.3878 33.9219 79.8097 33.9746 80.0558 34.0625Z" fill="#DB7239"/>
<path d="M40.9443 30.002C41.8056 29.5098 42.7021 28.9648 43.2119 28.5254L45.1279 27.0488L44.8642 26.8379C44.7236 26.6973 44.6357 26.5918 44.6181 26.5215L44.1083 25.8711C43.5986 25.0801 43.7744 24.9746 43.6865 24.5703C43.6865 24.2012 43.8974 23.7441 44.6181 23.3047L45.9892 22.5488C45.7607 22.4082 45.6025 22.3027 45.5146 22.2324C45.163 21.9863 44.9345 21.8105 44.829 21.7227C44.3193 21.3008 44.3017 20.8613 44.3017 20C44.3017 19.7715 44.4775 19.4902 44.829 19.1738C45.0048 19.0332 45.3036 18.8223 45.7431 18.5586C46.165 18.2773 46.6396 18.0664 47.0615 17.873L47.9404 17.2578C48.1337 16.9766 48.2919 16.7656 48.7314 16.6074C48.9599 16.5195 49.1708 16.4668 49.329 16.4668C49.8564 16.4668 50.5244 16.8887 50.9638 17.293C51.1044 17.5566 51.2802 17.9785 51.2802 18.3828C51.2802 18.5938 51.1044 18.9102 50.7704 19.3145C50.6826 19.4375 50.5068 19.6133 50.2783 19.8594L50.7353 20.2109C51.0693 20.5098 51.2978 20.7207 51.3857 20.8438L51.79 21.4414C51.8779 21.6348 51.9306 21.8281 51.9306 22.0215C51.9306 22.2148 51.8779 22.3906 51.79 22.5488C51.5966 22.918 51.3857 23.1992 51.1747 23.3926C51.1044 23.4629 50.9286 23.5859 50.665 23.7793L48.8369 25.0449C48.9599 25.1152 49.0302 25.168 49.0829 25.2207C49.2939 25.4141 49.4872 25.6426 49.663 25.9414C49.9267 26.2754 50.0146 26.6094 49.9443 26.9082C49.7509 28.1035 49.3642 28.6133 48.5029 29.1758L44.1083 32.2344L41.5595 33.9219C40.6982 34.502 39.8896 34.959 39.1513 35.3281C38.9579 35.3281 38.6767 35.3809 38.3251 35.4688C38.1669 35.4688 37.9911 35.4863 37.7802 35.5039C37.3583 35.5039 37.1298 35.3984 36.4267 34.8184C36.2861 34.7305 35.8994 34.1504 35.6708 33.8164C35.5829 33.6055 35.5478 33.377 35.5478 33.1309C35.5478 32.7617 35.6357 32.375 35.8115 31.9355C35.8994 31.6543 36.4267 31.4258 36.8486 31.1973C37.0419 31.0918 37.4111 31.0391 37.9208 31.0391L38.8876 31.0039C39.2744 30.9512 39.6786 30.8105 40.1181 30.5469L40.9443 30.002ZM46.0595 32.7266C45.6552 32.7266 45.2685 32.8848 44.8994 33.2012C44.6005 33.5352 44.4423 33.9219 44.4423 34.3613C44.4423 35.2754 45.1982 36.0137 46.0595 36.0137C46.9736 36.0137 47.7119 35.2227 47.7119 34.3613C47.7119 33.9219 47.5361 33.5527 47.1845 33.2188C46.8505 32.8848 46.4638 32.7266 46.0595 32.7266Z" fill="#BCBCBC"/>
<path d="M52.0888 4.12695C51.2451 4.12695 50.0322 4.6543 48.4501 5.70898C46.499 7.00977 45.2158 8.46875 44.5654 10.1035C44.4775 10.2441 44.5302 10.4551 44.7587 10.7363C44.9872 11 45.2685 11.123 45.5673 11.0703C45.9716 11.0176 46.2704 10.9297 46.7626 10.9297C47.29 10.9297 47.6943 11.1406 47.9755 11.5449C48.2919 11.8965 48.4501 12.2832 48.4501 12.6875C48.4501 13.2324 48.2216 13.7246 47.7646 14.1289C47.5361 14.375 47.0966 14.498 46.4638 14.498C45.4794 14.498 44.706 14.4453 44.1435 14.3223C43.581 14.1992 43.0185 13.918 42.4736 13.5137C41.5068 12.8984 40.9619 11.7207 40.9619 10.4551C40.9619 9.85742 41.0849 9.3125 41.3134 8.80273C41.9462 7.37891 42.5263 6.35938 43.0361 5.70898C43.5458 5.05859 44.3896 4.28516 45.5673 3.37109L46.6923 2.58008C46.9911 2.35156 47.3603 2.14062 47.7997 1.92969C49.54 1.06836 50.8583 0.558594 51.913 0.558594C52.704 0.558594 53.6005 0.576172 54.1806 0.927734C54.8661 1.29688 55.3232 1.61328 55.5517 1.8418C55.7802 2.07031 55.9911 2.45703 56.1845 3.00195C56.3427 3.26562 56.4306 3.58203 56.4833 3.93359C56.5361 4.26758 56.5536 4.46094 56.5536 4.51367C56.5536 4.74219 56.5361 4.90039 56.5185 5.02344C56.3954 6.13086 55.9911 7.0625 55.3232 7.83594C54.8837 8.31055 54.0576 8.97852 52.8447 9.80469C52.6161 9.96289 52.4228 10.0859 52.2646 10.1738L51.6845 10.4727C51.0341 10.8066 50.788 11 50.3661 11C50.2783 11 50.1552 10.9824 49.9619 10.9297C49.1005 10.9297 48.415 10.1387 48.415 9.27734C48.415 8.76758 48.5556 8.38086 48.8544 8.11719L52.5986 5.5332C52.7392 5.33984 52.8095 5.14648 52.8095 4.95312C52.8095 4.44336 52.5634 4.17969 52.0888 4.12695Z" fill="#BCBCBC"/>
<path d="M37.7626 21.2305C37.7626 21.5645 37.5869 22.0742 37.4462 22.4434C37.1826 22.9531 36.6728 23.5684 35.9345 24.2891C35.3017 24.9043 34.7392 25.2734 34.0536 25.6074L32.5419 26.3633C32.3486 26.4512 32.2079 26.5039 32.0849 26.5215C31.2587 26.7852 30.6259 26.9082 30.1689 26.9082C29.6943 26.9082 29.29 26.9258 28.956 26.9434C27.4443 27.0664 26.6181 27.1191 26.4951 27.084C26.3017 27.2773 26.1259 27.4707 25.9326 27.6289C25.5283 28.0156 25.2294 28.332 25.0536 28.5957C25.0009 28.7188 24.9833 28.9121 24.9833 29.1406C24.9833 29.4043 25.0888 29.6328 25.2822 29.8262C25.7568 30.0547 26.6357 30.2832 27.4091 30.2832L29.5888 30.1777C30.1689 30.125 30.5908 30.0723 30.8193 30.0195C31.0654 29.9668 31.4169 29.791 31.8564 29.5273L32.5419 29.2109C32.9111 29.0703 33.2451 29 33.5615 29C34.0185 29 34.3701 29.123 34.6337 29.3691C35.1786 29.8789 35.249 30.0723 35.249 30.3535C35.3017 30.6875 35.3193 30.8984 35.3193 30.9688C35.3193 31.2324 35.2314 31.4609 35.0732 31.6191C34.8095 31.9355 34.4931 32.1992 34.1415 32.4102C33.9658 32.5332 33.6669 32.6738 33.2275 32.8496L32.2607 33.166L31.2236 33.4473C31.0302 33.5 30.8369 33.5352 30.6611 33.5527L29.8173 33.6582C29.4306 33.7109 28.499 33.7461 27.04 33.7461C26.1435 33.7461 25.4228 33.6582 24.8779 33.5C24.3329 33.3418 23.7001 33.0781 23.0146 32.6914L22.0302 31.9355C21.7314 31.6719 21.4853 31.3555 21.2919 30.9688C21.0986 30.7051 20.9931 30.2129 20.9931 29.457C20.9931 28.666 21.0986 28.1387 21.4326 27.4531C21.6962 26.9785 21.9599 26.5918 22.2236 26.3105C22.5048 26.0117 22.8915 25.6953 23.3661 25.3613L22.7861 24.4297C22.4169 23.5859 22.4345 22.6367 22.4345 22.373C22.4345 21.8105 22.5751 21.0898 23.1201 20.3164C23.9814 19.1211 23.8408 19.1738 24.7724 18.4531L25.6337 17.9434C26.0732 17.7852 26.3369 17.6973 26.4247 17.6973C26.6533 17.6797 26.9521 17.6621 27.3212 17.6621C28.288 17.6621 29.0966 17.873 30.0634 18.5586C30.1161 18.541 30.1513 18.5059 30.1689 18.4883C30.3974 18.3301 30.5732 18.2246 30.7138 18.207L31.7509 17.6973C32.2958 17.416 32.999 17.2578 33.6318 17.2578C34.0712 17.2578 34.4052 17.293 34.6337 17.3457C34.8798 17.3984 35.2314 17.4863 35.6708 17.6445C36.5849 17.9434 37.3583 18.541 37.7275 19.4551C37.7275 19.6309 37.7451 19.877 37.7802 20.2109C37.8154 20.5273 37.8329 20.7031 37.8329 20.7207C37.8329 20.8086 37.8154 20.9844 37.7626 21.2305ZM33.7724 21.2305L33.2978 21.1074C33.0869 21.0898 32.9286 21.0723 32.8056 21.0723C32.6826 21.0723 32.5244 21.1426 32.331 21.2656L31.7158 21.8633L30.7138 23.1289C31.0478 23.2168 31.5048 23.1465 32.0673 22.9004C33.1923 22.3906 33.4033 21.9863 33.4911 21.8281C33.6845 21.5996 33.7724 21.3887 33.7724 21.2305ZM27.831 22.0918C27.8837 21.916 27.8837 21.793 27.831 21.7227C27.7607 21.582 27.6025 21.5117 27.3564 21.5117C26.8818 21.5117 26.6884 21.7578 26.5654 22.1973C26.4951 22.4258 26.4951 22.7246 26.5654 23.0586C26.5654 23.1113 26.6005 23.1816 26.6533 23.3047C26.8115 23.1816 26.9521 23.1289 27.04 23.1289L27.3564 22.9531C27.5849 22.7949 27.6904 22.6367 27.6904 22.5137C27.7783 22.4609 27.7783 22.2852 27.831 22.0918Z" fill="#BCBCBC"/>
<path d="M36.3915 7.94141L36.1454 8.52149L35.706 8.90821C34.9501 9.43555 34.1767 9.94532 33.4033 10.4551C30.9599 12.1426 29.5185 13.1094 29.079 13.3731L28.4814 13.7422L27.831 14.0938L27.0048 14.4981L26.2138 14.5684C25.8622 14.5684 25.8095 14.5684 25.2646 14.2695C25.1415 14.1816 25.0009 14.041 24.8427 13.8828C24.6669 13.7246 24.3154 13.2324 24.2978 12.7227C24.2978 11.8965 24.5087 11.2813 24.9482 11C25.4228 10.7188 26.1259 10.7188 26.7763 10.4199L27.0576 10.2793C27.2158 10.209 27.6201 9.98047 28.2704 9.59375C28.9384 9.20704 29.5185 8.83789 30.0283 8.48633L31.3115 7.57227C31.4169 7.50196 31.6279 7.32618 31.9267 7.04493C32.0497 6.95704 32.2783 6.7461 32.6474 6.44727C33.3681 5.83204 33.9658 5.46289 34.1943 5.46289C34.6337 5.46289 35.1259 5.44532 35.4951 5.63868C36.3212 6.35938 36.4267 6.85157 36.4267 7.4668C36.4267 7.71289 36.4091 7.8711 36.3915 7.94141Z" fill="#BCBCBC"/>
<path d="M21.415 20.8262C21.415 21.3711 21.2216 21.7754 20.5888 22.127L19.622 22.4785C19.1474 22.707 18.8134 22.8828 18.6201 23.0234C18.1454 23.3223 17.249 23.9375 15.9482 24.8691C14.6474 25.8008 13.663 26.4688 12.9775 26.8906C12.2919 27.3125 11.624 27.7344 10.9736 28.1738C9.69037 29.0527 8.89935 29.5625 8.63568 29.7031C8.10834 30.0723 7.59857 30.4062 7.12396 30.7227C6.29779 31.25 5.38373 31.7246 4.39935 32.1289C4.27631 32.1289 3.8017 32.3398 3.60834 32.3398H2.6767C2.44818 32.252 2.14935 32.041 1.74506 31.7246L1.23529 31.1797L1.05951 30.6875C1.04193 30.4414 1.00677 30.1953 0.971619 29.9668C0.971619 29.791 1.02435 29.5977 1.12982 29.4043C1.32318 29 1.32318 29 1.41107 28.7188C1.63959 28.3672 1.83295 28.2617 2.30756 28.0332L3.16888 27.9277H4.04779C4.34662 27.9277 4.76849 27.7871 5.29584 27.4883C5.59467 27.3301 5.91107 27.1367 6.22748 26.9434L8.28412 25.7656C8.42474 25.6953 8.58295 25.6074 8.74115 25.502C9.05756 25.3438 9.4267 25.0801 9.86615 24.7461L11.2724 23.709C11.7822 23.3398 12.1161 23.1113 12.2744 23.0234H10.3232C9.91888 23.041 9.62006 23.0586 9.39154 23.0586C9.03998 23.0586 8.72357 23.0059 8.4599 22.8828C7.91498 22.6543 7.86224 22.1621 7.80951 21.8633C7.72162 21.6699 7.7392 21.459 7.7392 21.3711C7.7392 20.8965 8.03802 20.4395 8.63568 20C8.98724 19.9473 9.46185 19.6484 9.86615 19.4199C10.2704 19.3496 10.6747 19.209 11.0439 18.998C11.4833 18.6992 11.8173 18.5059 12.0634 18.3828C12.5029 17.6621 12.7841 17.2051 12.9247 17.0469C13.2411 16.6777 13.6806 16.4141 14.2255 16.2559C15.2275 16.2559 15.79 16.2559 16.0185 16.6602C16.2822 16.9238 16.4931 17.293 16.6337 17.7676C16.6337 18.418 16.4228 18.9629 16.0185 19.4199C16.4755 19.3672 16.8447 19.3145 17.1083 19.2441C17.4775 19.1035 17.8115 18.998 18.0751 18.9277C18.4619 18.7695 18.8486 18.6289 19.2529 18.4883C19.5869 18.4355 19.8505 18.4355 20.0087 18.4883C20.9755 18.6816 21.415 19.6309 21.415 20.8262Z" fill="#BCBCBC"/>
<path d="M15.3329 14.0938C14.8583 14.2344 13.9267 14.4629 12.9247 14.4629C12.3095 14.4629 11.7997 14.4102 11.413 14.3047C10.4462 14.1113 9.69037 13.6543 9.14545 12.8984C8.60052 12.1426 8.31927 11.2285 8.31927 10.1738C8.31927 9.875 8.33685 9.52344 8.38959 9.08398C8.44232 8.64453 8.74115 8.04688 9.32123 7.29102C9.77826 6.71094 10.3935 6.14844 11.1669 5.60352C12.081 4.9707 13.4169 4.51367 14.9111 4.51367C15.4208 4.51367 15.913 4.58398 16.3876 4.74219C17.2138 5.07617 17.6708 5.33984 18.1454 5.81445C18.9716 6.67578 19.4111 7.55469 19.4111 8.80273C19.4111 10.0859 18.8661 11.4043 18.1454 12.1074C17.706 12.6172 17.2841 13.0039 16.8798 13.3027C16.4755 13.6016 15.9658 13.8652 15.3329 14.0938ZM12.9599 10.8945C13.3994 10.9824 13.8915 10.8418 14.4716 10.4727C15.0517 10.0859 15.4033 9.75195 15.5615 9.45312C15.7021 9.25977 15.7724 9.03125 15.7724 8.76758C15.7724 8.62695 15.7372 8.48633 15.6669 8.32812C15.5263 8.06445 15.2978 7.94141 14.9814 7.94141C14.5419 7.94141 14.1728 8.08203 13.3994 8.50391C12.6259 8.9082 11.9755 9.61133 12.1689 10.3848C12.2568 10.666 12.3974 10.8066 12.9599 10.8945Z" fill="#BCBCBC"/>
</svg>
